<svg xmlns="http://www.w3.org/2000/svg" width="54.17" height="51.795" viewBox="0 0 54.17 51.795">
  <g id="Grupo_439" data-name="Grupo 439" transform="translate(-283.008 -64.556)">
    <g id="Grupo_437" data-name="Grupo 437" transform="translate(290.427 79.63)">
      <path id="Trazado_13575" data-name="Trazado 13575" d="M373.15,242.987a25.468,25.468,0,0,1-3.048-.183,25.991,25.991,0,0,1-10.7-3.793,25.617,25.617,0,0,1-5.388-4.538,1.055,1.055,0,0,1,.856-1.831l7.739,0h8.57q.876,0,1.752,0t1.751,0c.781,0,1.429,0,2.039-.01a9,9,0,0,0,7.944-4.415,8.7,8.7,0,0,0,1.263-5.716,9.142,9.142,0,0,0-7.211-7.961,9.38,9.38,0,0,0-1.883-.17c-.971-.008-2-.011-3.323-.011h-1.921l-1.921,0h-.13a3.209,3.209,0,0,1-2.935-1.653,3.164,3.164,0,0,1-.072-3.244A3.122,3.122,0,0,1,369.4,207.7q3.517-.007,7.034-.007,3.722,0,7.444,0a.49.49,0,0,0,.5-.238,2.009,2.009,0,0,1,1.687-.876,2.28,2.28,0,0,1,1.052.261,2.126,2.126,0,0,1,1,2.556,1.988,1.988,0,0,1-1.51,1.4,2.691,2.691,0,0,1-.56.062,2.075,2.075,0,0,1-1.734-.919.419.419,0,0,0-.265-.146c-1.815,0-3.762-.007-6.128-.007l-4.675,0H371.3c-.556,0-1.154,0-1.765.01a1.283,1.283,0,0,0-1.077.533,1.309,1.309,0,0,0-.085,1.223,1.229,1.229,0,0,0,1.2.715h.389q1.057,0,2.114,0t2.115,0c1.033,0,1.884,0,2.68.011a11.07,11.07,0,0,1,9.036,4.56,10.431,10.431,0,0,1,1.9,4.145,10.961,10.961,0,0,1,.068,4.581,11.1,11.1,0,0,1-6.3,8.1,10.625,10.625,0,0,1-4.773,1.03h-.037c-2.487-.007-5.2-.01-8.536-.01l-5.478,0-5.289,0h-.326a23.65,23.65,0,0,0,16.032,6.27,22.643,22.643,0,0,0,9.946-2.229c.234-.108.464-.218.689-.331l.014-.007.015,0a.539.539,0,0,0,.135-.063l.081-.05.005,0a23.6,23.6,0,0,0,3.545-2.251l.011-.008.075-.048a.243.243,0,0,0,.048-.045l.01-.012.012-.01c.289-.226.576-.462.855-.7l.044-.034a.467.467,0,0,0,.049-.045l.011-.011a23.733,23.733,0,0,0,2.625-2.679,23.02,23.02,0,0,0,3.32-5.226,24.313,24.313,0,0,0,1.8-5.658,27,27,0,0,0,.3-6.456,10.855,10.855,0,0,0-.181-1.329c-.046-.258-.094-.525-.129-.79a.92.92,0,0,0-.019-.1l-2.577-1.642,2.409-3.779,3.779,2.409-1.559,2.446a2.233,2.233,0,0,0,.054.487l.011.061a22.458,22.458,0,0,1,.232,7.113l0,.03c-.143,1.044-.292,2.123-.521,3.17a24.016,24.016,0,0,1-.781,2.632,25.289,25.289,0,0,1-4.569,8,25.908,25.908,0,0,1-5.617,4.991,25.273,25.273,0,0,1-9.836,3.851,27.148,27.148,0,0,1-4.3.35Z" transform="translate(-353.507 -206.426)" fill="#1c67b1"/>
      <path id="Trazado_13576" data-name="Trazado 13576" d="M384.736,205.41a2.113,2.113,0,0,1,.977.242,1.956,1.956,0,0,1,.918,2.362,1.825,1.825,0,0,1-1.391,1.289,2.516,2.516,0,0,1-.526.058,1.921,1.921,0,0,1-1.6-.854.57.57,0,0,0-.394-.212q-3.055-.008-6.109-.007l-5.473,0h-1.161c-.591,0-1.182,0-1.773.01a1.4,1.4,0,1,0,.043,2.792h.387c1.41,0,2.819-.007,4.229-.007q1.34,0,2.681.011a10.893,10.893,0,0,1,8.91,4.5,10.283,10.283,0,0,1,1.874,4.082,10.745,10.745,0,0,1,.067,4.514,10.9,10.9,0,0,1-6.214,7.988,10.548,10.548,0,0,1-4.7,1.014h-.037q-4.283-.011-8.564-.01-5.369,0-10.739,0h-.563l-.043.12a23.814,23.814,0,0,0,16.313,6.472,22.954,22.954,0,0,0,10.018-2.246q.347-.16.689-.331a.7.7,0,0,0,.177-.082l.075-.047a23.7,23.7,0,0,0,3.569-2.266l.075-.048a.388.388,0,0,0,.083-.075q.439-.343.861-.706l.039-.03a.626.626,0,0,0,.066-.06,23.82,23.82,0,0,0,2.643-2.7,23.1,23.1,0,0,0,3.342-5.261,24.362,24.362,0,0,0,1.807-5.7,27.024,27.024,0,0,0,.3-6.494c-.037-.714-.215-1.42-.311-2.132a.947.947,0,0,0-.042-.184l-2.491-1.588,2.236-3.508,3.508,2.236-1.494,2.345a2.423,2.423,0,0,0,.065.628,22.416,22.416,0,0,1,.231,7.062c-.146,1.067-.293,2.137-.523,3.187a23.615,23.615,0,0,1-.776,2.614,25.009,25.009,0,0,1-4.54,7.953,25.637,25.637,0,0,1-5.582,4.96,25.114,25.114,0,0,1-9.773,3.826,26.856,26.856,0,0,1-4.272.348,25.173,25.173,0,0,1-3.029-.182,25.7,25.7,0,0,1-10.638-3.77,25.353,25.353,0,0,1-5.354-4.51.955.955,0,0,1-.223-1.064.915.915,0,0,1,.959-.5h0l7.7,0h8.615c1.165,0,2.331.007,3.5.007q1.022,0,2.045-.01a9.136,9.136,0,0,0,8.078-4.49,8.836,8.836,0,0,0,1.287-5.82,9.3,9.3,0,0,0-7.336-8.1,9.393,9.393,0,0,0-1.916-.174q-1.662-.013-3.323-.011-1.916,0-3.832,0H368.2a3.065,3.065,0,0,1-2.8-1.574,3.02,3.02,0,0,1-.068-3.086,2.969,2.969,0,0,1,2.734-1.685q3.516-.007,7.033-.006,3.722,0,7.445,0h0a.645.645,0,0,0,.63-.31,1.842,1.842,0,0,1,1.553-.8m0-.322v0a2.17,2.17,0,0,0-1.821.947c-.092.139-.153.167-.362.167-2.045,0-4.738,0-7.447,0-2.561,0-4.861,0-7.033.006a3.275,3.275,0,0,0-3.017,1.856,3.358,3.358,0,0,0,.076,3.4,3.4,3.4,0,0,0,3.073,1.732h2.058l1.916,0c1.326,0,2.35,0,3.32.011a9.229,9.229,0,0,1,1.85.167,8.842,8.842,0,0,1,4.146,2.1,8.749,8.749,0,0,1,2.939,5.723,8.546,8.546,0,0,1-1.24,5.613,8.843,8.843,0,0,1-7.809,4.34c-.61.007-1.259.01-2.041.01q-.874,0-1.747,0t-1.749,0h-8.615l-7.7,0c-.966,0-1.186.523-1.258.695a1.275,1.275,0,0,0,.281,1.405,25.781,25.781,0,0,0,5.422,4.566,26.152,26.152,0,0,0,10.77,3.816,25.627,25.627,0,0,0,3.067.184,27.324,27.324,0,0,0,4.323-.352,25.433,25.433,0,0,0,9.9-3.875,26.071,26.071,0,0,0,5.652-5.022,25.447,25.447,0,0,0,4.6-8.055,24.161,24.161,0,0,0,.786-2.65c.231-1.053.379-2.136.523-3.183l0-.029a22.615,22.615,0,0,0-.233-7.163l-.011-.061a2.43,2.43,0,0,1-.053-.41l1.448-2.272.173-.271-.271-.173-3.508-2.236-.271-.173-.173.271-2.236,3.508-.173.271.271.173,2.383,1.519,0,.025c.036.268.084.537.13.8a10.552,10.552,0,0,1,.178,1.309,26.86,26.86,0,0,1-.293,6.417,24.166,24.166,0,0,1-1.783,5.62,22.862,22.862,0,0,1-3.3,5.188,23.594,23.594,0,0,1-2.609,2.663l-.012.01-.01.011a.343.343,0,0,1-.033.03l-.018.014-.02.015-.006,0-.005,0c-.276.237-.562.472-.849.7l-.025.019-.02.024a.139.139,0,0,1-.016.017l-.062.04-.01.006-.011.007-.011.008a23.428,23.428,0,0,1-3.521,2.235l-.011.006-.011.007-.046.029-.03.019a.377.377,0,0,1-.092.045l-.031.008-.028.014c-.224.112-.453.222-.68.327l0,0,0,0a22.481,22.481,0,0,1-9.875,2.212,23.483,23.483,0,0,1-15.614-5.948l5.167,0,5.479,0c3.347,0,6.068,0,8.563.01h.037a10.783,10.783,0,0,0,4.844-1.047,11.249,11.249,0,0,0,6.388-8.213,11.121,11.121,0,0,0-.068-4.648A10.59,10.59,0,0,0,384.7,215.4a11.224,11.224,0,0,0-9.162-4.623c-.8-.008-1.65-.011-2.684-.011q-1.058,0-2.115,0t-2.114,0h-.387a1.06,1.06,0,0,1-1.053-.613,1.152,1.152,0,0,1,.068-1.074,1.111,1.111,0,0,1,.946-.462c.61-.009,1.21-.01,1.768-.01h2.065l4.569,0c2.36,0,4.3,0,6.108.007a.286.286,0,0,1,.136.081,2.255,2.255,0,0,0,1.864.985,2.851,2.851,0,0,0,.593-.065,2.141,2.141,0,0,0,1.629-1.5,2.288,2.288,0,0,0-1.074-2.751,2.442,2.442,0,0,0-1.126-.279Z" transform="translate(-352.177 -205.088)" fill="#1c67b1"/>
    </g>
    <g id="Grupo_438" data-name="Grupo 438" transform="translate(283.008 64.556)">
      <path id="Trazado_13577" data-name="Trazado 13577" d="M299.058,102.394a2.256,2.256,0,0,1-.661-.1,1.887,1.887,0,0,1-1.383-1.57,1.977,1.977,0,0,1,.92-2.163,2.1,2.1,0,0,1,1.1-.329,2.052,2.052,0,0,1,1.615.829.674.674,0,0,0,.606.293c1.3-.005,2.689-.008,4.257-.008l3.186,0,2.248,0,.01-.006h.79l.011.008,3.209.006h0l.172,0,.468-.01a1.261,1.261,0,0,0,1.2-.772,1.3,1.3,0,0,0-.073-1.25,1.333,1.333,0,0,0-1.133-.608c-.518-.007-1.083-.011-1.726-.011-.61,0-1.22,0-1.829.006s-1.221.006-1.831.006H309.9c-.266,0-.537.005-.8.01s-.538.01-.807.01a11.144,11.144,0,0,1-1.463-.079,10.966,10.966,0,0,1-5.252-2.126,11.363,11.363,0,0,1-3.812-5.092,10.674,10.674,0,0,1-.607-5.271,10.921,10.921,0,0,1,4.624-7.718,11.166,11.166,0,0,1,3.939-1.794,9.776,9.776,0,0,1,2.21-.265c3.95-.011,7.918-.013,10.933-.013l9.143,0-.282-.239c-.343-.291-.7-.592-1.053-.881a22.119,22.119,0,0,0-4.669-2.9,24.3,24.3,0,0,0-5.191-1.725,21.367,21.367,0,0,0-4.432-.5h-.2c-1.06.012-2.14.118-3.184.221l-.64.062a19.069,19.069,0,0,0-4.712,1.193,22.9,22.9,0,0,0-5.233,2.758,23.991,23.991,0,0,0-8.821,11.558,21.978,21.978,0,0,0-1.182,5,19.865,19.865,0,0,0-.045,5.114c.077.512.134,1.035.19,1.54.022.2.044.4.068.6l0,.015,2.55,1.683-2.419,3.667-3.667-2.419,1.6-2.424c-.042-.358-.095-.721-.146-1.073-.093-.642-.188-1.306-.228-1.966a32.5,32.5,0,0,1-.021-3.677,24.338,24.338,0,0,1,.421-3.226,25.381,25.381,0,0,1,.734-2.841,24,24,0,0,1,2.079-4.765A26,26,0,0,1,301.2,68.4a24.235,24.235,0,0,1,5.338-1.766A27.186,27.186,0,0,1,312,66.056a22.9,22.9,0,0,1,2.86.178,27.746,27.746,0,0,1,5.491,1.233,24.805,24.805,0,0,1,4.65,2.15,25.9,25.9,0,0,1,6.048,4.94,1.062,1.062,0,0,1,.341,1.2,1.12,1.12,0,0,1-1.145.653c-5.555-.007-11.041-.01-17.571-.012h-.036a.552.552,0,0,0-.073-.006h-1.835l-.1,0c-.425.018-.857.024-1.276.029a20.546,20.546,0,0,0-2.67.152,9.05,9.05,0,0,0-2.73.932,8.582,8.582,0,0,0-3.806,3.827,8.783,8.783,0,0,0-.906,5.822,9.058,9.058,0,0,0,2.806,5.165,9.284,9.284,0,0,0,4,2.169,11.1,11.1,0,0,0,2.881.283l.565,0,.46,0q1.449,0,2.9,0c1.123,0,2.121,0,3.05.008a3.249,3.249,0,0,1,2.716,4.613,3.07,3.07,0,0,1-1.586,1.587,3.985,3.985,0,0,1-1.464.331c-2.237.011-4.674.016-7.449.016q-3.457,0-6.914-.008a.578.578,0,0,0-.54.259A1.99,1.99,0,0,1,299.058,102.394Z" transform="translate(-284.863 -65.895)" fill="#1c67b1"/>
      <path id="Trazado_13578" data-name="Trazado 13578" d="M310.148,64.878a22.619,22.619,0,0,1,2.84.177,27.759,27.759,0,0,1,5.46,1.226,24.559,24.559,0,0,1,4.62,2.136,25.616,25.616,0,0,1,6.01,4.909c.266.295.5.594.313,1.029a.946.946,0,0,1-1,.556h0q-8.784-.012-17.567-.012h-.015a.722.722,0,0,0-.095-.007h-1.834l-.1,0a38.787,38.787,0,0,0-3.962.183,9.263,9.263,0,0,0-2.779.948,8.748,8.748,0,0,0-3.876,3.9,8.993,8.993,0,0,0-.921,5.925,9.279,9.279,0,0,0,2.855,5.253,9.4,9.4,0,0,0,4.07,2.206,11.379,11.379,0,0,0,2.921.288c.342,0,.684,0,1.026-.005q1.444,0,2.888,0,1.528,0,3.057.008a3.179,3.179,0,0,1,2.668,2.009,3.1,3.1,0,0,1-1.6,3.882,3.878,3.878,0,0,1-1.4.32q-3.731.018-7.462.016-3.45,0-6.9-.007h0a.732.732,0,0,0-.668.325,1.818,1.818,0,0,1-1.485.757,2.1,2.1,0,0,1-.614-.094,1.722,1.722,0,0,1-1.271-1.444,1.829,1.829,0,0,1,.846-2,1.927,1.927,0,0,1,1.019-.3,1.9,1.9,0,0,1,1.489.768.829.829,0,0,0,.731.354h.007q2.12-.009,4.241-.008,1.866,0,3.733,0h.25l1.5,0,.014-.006h.694l.013.008,3.258.006h0l.646-.014A1.415,1.415,0,0,0,315.1,97.3a1.461,1.461,0,0,0-1.351-2.085c-.577-.008-1.154-.011-1.731-.011-1.22,0-2.439.012-3.659.012h-.32c-.534,0-1.072.02-1.607.02a11.206,11.206,0,0,1-1.442-.078,10.8,10.8,0,0,1-5.176-2.095,11.128,11.128,0,0,1-3.758-5.021,10.534,10.534,0,0,1-.6-5.192,10.76,10.76,0,0,1,4.559-7.608,10.961,10.961,0,0,1,3.883-1.768,9.546,9.546,0,0,1,2.173-.261q5.471-.016,10.941-.013l8.828,0h.558l.052-.115c-.512-.431-1.019-.868-1.538-1.29a22.188,22.188,0,0,0-4.7-2.924,24.327,24.327,0,0,0-5.226-1.737,21.648,21.648,0,0,0-4.466-.5h-.2c-1.28.014-2.56.163-3.837.284a18.943,18.943,0,0,0-4.753,1.2,22.989,22.989,0,0,0-5.27,2.778,24.155,24.155,0,0,0-8.88,11.635,22.07,22.07,0,0,0-1.19,5.037,19.779,19.779,0,0,0-.044,5.156c.106.709.174,1.425.257,2.138a.844.844,0,0,0,.019.095l2.471,1.63-2.242,3.4-3.4-2.242L285,95.407c-.119-1.03-.318-2.055-.379-3.088a32.191,32.191,0,0,1-.021-3.659,24.506,24.506,0,0,1,.419-3.2,25.492,25.492,0,0,1,.729-2.824A23.767,23.767,0,0,1,287.81,77.9a25.842,25.842,0,0,1,11.6-10.69,23.99,23.99,0,0,1,5.3-1.754,27.208,27.208,0,0,1,5.435-.578m0-.322v0a27.34,27.34,0,0,0-5.5.584,24.4,24.4,0,0,0-5.373,1.778A26.163,26.163,0,0,0,287.53,77.74a24.151,24.151,0,0,0-2.093,4.8A25.528,25.528,0,0,0,284.7,85.4a24.487,24.487,0,0,0-.424,3.247,32.676,32.676,0,0,0,.021,3.7c.04.667.136,1.334.229,1.98.048.331.1.673.138,1.01l-1.478,2.24-.177.269.269.177,3.4,2.242.269.177.177-.269,2.242-3.4.177-.269-.269-.177-2.354-1.553q-.031-.272-.061-.544c-.056-.506-.114-1.03-.191-1.545a19.719,19.719,0,0,1,.046-5.072,21.812,21.812,0,0,1,1.173-4.963,23.832,23.832,0,0,1,8.763-11.481,22.737,22.737,0,0,1,5.2-2.739,18.921,18.921,0,0,1,4.672-1.184l.642-.063c1.041-.1,2.117-.209,3.169-.221h.193a21.214,21.214,0,0,1,4.4.494,24.139,24.139,0,0,1,5.157,1.714,21.951,21.951,0,0,1,4.635,2.881c.335.273.672.557,1,.834h-8.7c-3.016,0-6.986,0-10.942.013a9.793,9.793,0,0,0-2.247.269,11.327,11.327,0,0,0-4,1.82,11.076,11.076,0,0,0-4.69,7.828,10.836,10.836,0,0,0,.617,5.349,11.521,11.521,0,0,0,3.865,5.163,11.126,11.126,0,0,0,5.329,2.157,11.306,11.306,0,0,0,1.484.081c.271,0,.545-.005.81-.01s.533-.01.8-.01h.32c.611,0,1.231,0,1.831-.006s1.219-.006,1.828-.006c.643,0,1.208,0,1.727.011a1.175,1.175,0,0,1,1,.534,1.139,1.139,0,0,1,.062,1.1,1.1,1.1,0,0,1-1.056.677l-.476.011-.16,0h0l-3.156-.006-.011-.008h-.888l-.01.006-1.386,0h-.28l-.951,0h0l-2.783,0c-1.566,0-2.954,0-4.242.008H299.4a.517.517,0,0,1-.479-.232,2.21,2.21,0,0,0-1.741-.889,2.262,2.262,0,0,0-1.189.352A2.153,2.153,0,0,0,295,99.409a2.039,2.039,0,0,0,1.494,1.7,2.416,2.416,0,0,0,.708.109,2.149,2.149,0,0,0,1.744-.887.419.419,0,0,1,.409-.194c2.206,0,4.555.007,6.9.007,2.781,0,5.223-.005,7.464-.016a4.142,4.142,0,0,0,1.524-.343,3.231,3.231,0,0,0,1.672-1.67,3.41,3.41,0,0,0-2.862-4.84c-.93-.005-1.931-.008-3.059-.008q-1.445,0-2.889,0l-.459,0-.566,0A10.961,10.961,0,0,1,304.243,93a9.126,9.126,0,0,1-3.933-2.131,8.9,8.9,0,0,1-2.757-5.077,8.626,8.626,0,0,1,.891-5.718,8.424,8.424,0,0,1,3.735-3.757,8.9,8.9,0,0,1,2.681-.917,20.367,20.367,0,0,1,2.649-.15c.42-.006.853-.011,1.281-.03l.09,0h1.834a.4.4,0,0,1,.052,0l.021,0h.04c5.606,0,11.613,0,17.563.012a1.267,1.267,0,0,0,1.3-.75,1.211,1.211,0,0,0-.369-1.373,26.057,26.057,0,0,0-6.085-4.971,24.967,24.967,0,0,0-4.68-2.164,27.894,27.894,0,0,0-5.523-1.24,23.038,23.038,0,0,0-2.88-.179Z" transform="translate(-283.008 -64.556)" fill="#1c67b1"/>
    </g>
  </g>
</svg>
